<svg width="1479" height="1479" viewBox="0 0 1479 1479" fill="none" xmlns="http://www.w3.org/2000/svg">
<rect width="1479" height="1479" rx="739.5" fill="#F0F0F0"/>
<path d="M653.404 699.771C661.43 702.961 669.691 706.136 678.279 709.263L678.578 709.372L678.591 709.358C697.834 716.609 714.738 723.346 729.222 729.539V823.943C729.222 850.35 731.23 870.503 740.072 884.259C748.9 897.992 764.455 905.237 791.175 906.155V913.241H592.961V906.154C600.976 905.884 608.487 904.51 615.274 899.753H615.275C618.038 897.812 620.521 895.557 622.946 893.282C625.379 891.001 627.749 888.706 630.313 886.647C645.789 874.23 653.404 853.305 653.404 823.96V699.771Z" fill="#142A52" stroke="black"/>
<path d="M704.209 363.023C712.328 363.023 720.69 363.656 729.189 364.626V605.484C729.047 605.427 728.903 605.37 728.756 605.312H728.754C697.741 593.321 672.485 582.631 653.404 573.47V368.683C667.664 364.971 684.543 363.023 704.209 363.023Z" fill="#142A52" stroke="black"/>
<path d="M949.258 206.517L956.083 406.537L948.299 407.458C941.434 357.297 930.651 319.098 916.1 293.208L916.099 293.207C901.621 267.54 880.752 249.061 853.321 237.704L852.011 237.169C831.823 228.787 799.836 223.998 755.988 222.686H755.985C748.287 222.505 740.309 222.407 731.855 222.407H729.189V313.455C726.071 313.381 722.888 313.205 719.73 313.205C695.942 313.205 673.939 315.316 653.404 319.091V222.407H648.868C643.609 222.407 638.198 222.483 632.646 222.688L630.258 222.784C619.732 223.063 608.734 223.72 597.379 224.573C558.207 227.494 529.01 234.618 509.765 245.94C490.4 257.177 474.574 276.79 462.062 304.431V304.433C450.723 329.718 441.911 364.142 435.807 407.476L428.021 406.554L434.846 206.517H949.258Z" fill="#142A52" stroke="black"/>
<path d="M893.236 459.34C884.409 433.168 863.096 412.145 846.492 395.731C845.738 394.976 844.983 394.32 844.244 393.664C824.441 374.609 802.275 361.573 777.681 354.636C752.152 347.404 727.64 343.747 704.276 343.747C647.016 343.747 609.083 358.67 590.69 388.499C572.2 418.344 562.995 446.484 562.995 473.033C562.995 500.894 569.853 524.164 583.75 542.563C597.45 561.044 614.628 575.491 635.203 585.904C655.662 596.415 684.588 608.895 721.848 623.243C763.899 639.756 797.698 654.958 823.243 668.929C848.773 682.917 871.497 703.087 891.497 729.538C911.497 755.907 921.538 788.556 921.538 827.585C921.538 860.71 912.908 890.539 895.73 917.104C878.453 943.653 852.546 964.676 818.092 980.255C783.637 995.735 741.307 1003.52 691.364 1003.52C641.421 1003.52 592.134 996.489 539.746 982.321C530.46 980.255 524.734 979.222 522.667 979.222C513.741 979.222 491.411 982.042 493.479 994.144L491.132 996.309C491.789 948.36 482.305 890.85 462.683 823.567L516.76 906.035C524.176 914.857 534.414 922.647 547.556 929.583C569.903 941.308 595.809 951.82 625.096 961.118C654.481 970.399 686.015 975.105 719.814 975.105C749.1 975.105 778.485 967.874 807.969 953.345C837.534 938.898 852.284 906.986 852.284 857.742C852.284 832.881 847.969 811.58 839.322 793.656C830.692 775.733 819.421 761.187 805.425 750.217C791.43 739.148 775.204 729.292 756.795 720.749C738.304 712.123 714.449 702.267 685.162 691.199C644.423 676.473 610.904 661.271 584.521 645.693C558.139 630.213 537.203 611.075 521.617 588.364C506.128 565.57 498.335 537.889 498.335 505.141C498.335 453.06 517.482 409.719 555.792 375.101C594.086 340.386 648.738 323.118 719.797 323.118C756.04 323.118 791.709 326.873 826.919 334.466C840.996 337.188 849.823 338.598 853.301 338.598C863.621 338.598 886.821 334.941 897.141 327.989C897.518 327.989 897.699 327.989 897.797 327.89H897.977C897.977 327.71 897.42 327.611 897.223 327.611H897.124V327.989L896.944 393.664L896.665 459.34H893.285H893.236Z" fill="#142A52"/>
<path d="M789.214 557.961C790.723 557.026 792.315 556.272 793.808 555.436V555.993C792.216 556.551 790.707 557.207 789.214 557.961Z" fill="#142A52"/>
<path d="M756.269 600.088C766.72 585.46 779.042 571.685 792.397 559.665C831.528 524.409 893.776 518.685 942.357 534.412C1000.36 553.171 1028.51 609.451 1028.53 609.468C1043.85 640.083 1051.14 674.799 1052.32 708.875C1057.04 845.114 967.526 992.29 821.962 1003.52C940.798 994.34 990.971 808.545 990.971 712.679C990.971 664.009 977.386 611.878 943.834 574.686C908.608 535.625 860.256 535.822 815.531 557.632C793.644 568.307 773.496 582.869 756.269 600.088Z" fill="#142A52"/>
<path d="M344.26 1228.52V1102.52H386.74V1228.52H344.26ZM407.19 1228.52V1102.52H442.11L506.19 1179.2H489.99V1102.52H531.39V1228.52H496.47L432.39 1151.84H448.59V1228.52H407.19ZM588.821 1228.52L535.541 1102.52H581.261L624.641 1208.9H597.461L642.101 1102.52H683.861L630.581 1228.52H588.821ZM752.39 1231.4C742.19 1231.4 732.71 1229.78 723.95 1226.54C715.31 1223.3 707.81 1218.74 701.45 1212.86C695.09 1206.86 690.11 1199.84 686.51 1191.8C683.03 1183.76 681.29 1175 681.29 1165.52C681.29 1155.92 683.03 1147.16 686.51 1139.24C690.11 1131.2 695.09 1124.24 701.45 1118.36C707.81 1112.36 715.31 1107.74 723.95 1104.5C732.71 1101.26 742.19 1099.64 752.39 1099.64C762.71 1099.64 772.19 1101.26 780.83 1104.5C789.47 1107.74 796.97 1112.36 803.33 1118.36C809.69 1124.24 814.61 1131.2 818.09 1139.24C821.69 1147.16 823.49 1155.92 823.49 1165.52C823.49 1175 821.69 1183.76 818.09 1191.8C814.61 1199.84 809.69 1206.86 803.33 1212.86C796.97 1218.74 789.47 1223.3 780.83 1226.54C772.19 1229.78 762.71 1231.4 752.39 1231.4ZM752.39 1197.02C756.35 1197.02 760.01 1196.3 763.37 1194.86C766.85 1193.42 769.85 1191.38 772.37 1188.74C775.01 1185.98 777.05 1182.68 778.49 1178.84C779.93 1174.88 780.65 1170.44 780.65 1165.52C780.65 1160.6 779.93 1156.22 778.49 1152.38C777.05 1148.42 775.01 1145.12 772.37 1142.48C769.85 1139.72 766.85 1137.62 763.37 1136.18C760.01 1134.74 756.35 1134.02 752.39 1134.02C748.43 1134.02 744.71 1134.74 741.23 1136.18C737.87 1137.62 734.87 1139.72 732.23 1142.48C729.71 1145.12 727.73 1148.42 726.29 1152.38C724.85 1156.22 724.13 1160.6 724.13 1165.52C724.13 1170.44 724.85 1174.88 726.29 1178.84C727.73 1182.68 729.71 1185.98 732.23 1188.74C734.87 1191.38 737.87 1193.42 741.23 1194.86C744.71 1196.3 748.43 1197.02 752.39 1197.02ZM838.908 1228.52V1102.52H881.388V1228.52H838.908ZM966.998 1231.4C956.918 1231.4 947.558 1229.84 938.918 1226.72C930.398 1223.48 922.958 1218.92 916.598 1213.04C910.358 1207.16 905.498 1200.2 902.018 1192.16C898.538 1184.12 896.798 1175.24 896.798 1165.52C896.798 1155.8 898.538 1146.92 902.018 1138.88C905.498 1130.84 910.358 1123.88 916.598 1118C922.958 1112.12 930.398 1107.62 938.918 1104.5C947.558 1101.26 956.918 1099.64 966.998 1099.64C979.358 1099.64 990.278 1101.8 999.758 1106.12C1009.36 1110.44 1017.28 1116.68 1023.52 1124.84L996.698 1148.78C992.978 1144.1 988.838 1140.5 984.278 1137.98C979.838 1135.34 974.798 1134.02 969.158 1134.02C964.718 1134.02 960.698 1134.74 957.098 1136.18C953.498 1137.62 950.378 1139.72 947.738 1142.48C945.218 1145.24 943.238 1148.6 941.798 1152.56C940.358 1156.4 939.638 1160.72 939.638 1165.52C939.638 1170.32 940.358 1174.7 941.798 1178.66C943.238 1182.5 945.218 1185.8 947.738 1188.56C950.378 1191.32 953.498 1193.42 957.098 1194.86C960.698 1196.3 964.718 1197.02 969.158 1197.02C974.798 1197.02 979.838 1195.76 984.278 1193.24C988.838 1190.6 992.978 1186.94 996.698 1182.26L1023.52 1206.2C1017.28 1214.24 1009.36 1220.48 999.758 1224.92C990.278 1229.24 979.358 1231.4 966.998 1231.4ZM1034.55 1228.52V1102.52H1136.97V1134.56H1076.31V1196.48H1139.31V1228.52H1034.55ZM1073.43 1179.92V1149.32H1129.59V1179.92H1073.43Z" fill="#142A52"/>
</svg>
